<svg width="41" height="41" viewBox="0 0 41 41" fill="none" xmlns="http://www.w3.org/2000/svg">
<g clip-path="url(#clip0_493_11112)">
<path d="M18.1435 15.0959C22.0365 15.0959 25.2024 11.93 25.2024 8.0371C25.2024 4.14415 22.0365 0.978271 18.1435 0.978271C14.2506 0.978271 11.0847 4.14415 11.0847 8.0371C11.0847 11.93 14.2506 15.0959 18.1435 15.0959ZM18.1435 3.33121C20.7388 3.33121 22.8494 5.4418 22.8494 8.0371C22.8494 10.6324 20.7388 12.743 18.1435 12.743C15.5482 12.743 13.4377 10.6324 13.4377 8.0371C13.4377 5.4418 15.5482 3.33121 18.1435 3.33121Z" fill="#FCFCFC"/>
<path d="M39.3176 25.0971C39.3176 24.0253 38.4859 23.1524 37.4094 23.1077C35.1282 23.0442 33.2518 22.1559 31.9753 20.5324C31.6071 20.0736 31.0482 19.8112 30.4388 19.8112C30.44 19.8112 30.4376 19.8112 30.4388 19.8112C29.8941 19.8112 29.3953 20.0312 29.0247 20.4136C26.0259 17.7489 22.2106 16.2818 18.1376 16.2818C9.05529 16.2818 1.66705 23.67 1.66705 32.7524V32.9042C1.69529 36.0642 4.33882 38.6347 7.56117 38.6347C26.8576 38.6347 28.8671 38.7147 29.8447 38.5312C30.0929 38.5971 30.3271 38.6347 30.5388 38.6347C32.4035 38.6347 35.7788 35.7583 36.8871 34.543C39.5753 31.4865 39.3423 28.083 39.3176 25.0971ZM7.56117 36.2806C5.6247 36.2806 4.03764 34.7559 4.01999 32.8924V32.7512C4.01999 24.9665 10.3529 18.6336 18.1376 18.6336C21.5553 18.6336 24.7635 19.8336 27.3059 22.0242C26.2659 22.7077 25.0294 23.0677 23.5612 23.1089C22.5 23.1524 21.6682 24.0253 21.6682 25.0971C21.6435 28.0677 21.4059 31.4806 24.1153 34.5571C24.6059 35.0947 25.2753 35.7077 26.0047 36.2936C25.88 36.2947 13.0976 36.2806 7.56117 36.2806ZM35.1318 32.9724C33.8047 34.4289 31.2294 36.2065 30.5318 36.2818C29.8659 36.2406 27.4188 34.6889 25.8671 32.9877C23.8365 30.683 23.9941 28.1783 24.0188 25.4442C26.6682 25.2865 28.8282 24.25 30.4412 22.3689C32.0682 24.2312 34.3129 25.2889 36.9671 25.4442C36.9906 28.1736 37.1506 30.6806 35.1318 32.9724Z" fill="#FCFCFC"/>
</g>
<defs>
<clipPath id="clip0_493_11112">
<rect width="40" height="40" fill="white" transform="translate(0.5 0.25)"/>
</clipPath>
</defs>
</svg>
