<svg width="41" height="41" viewBox="0 0 41 41" fill="none" xmlns="http://www.w3.org/2000/svg">
<path d="M31.8636 6.53906H9.13637C7.2571 6.53906 5.72728 8.06888 5.72728 9.94815V24.7209C5.72728 26.6002 7.2571 28.13 9.13637 28.13H14.4916C14.5783 28.4354 14.6877 28.7308 14.8183 29.0149L12.0257 34.6727C11.8553 35.0193 11.8709 35.4284 12.0698 35.7608C12.2686 36.0932 12.6223 36.2992 13.0087 36.3119L14.9902 36.3744L16.243 37.9071C16.4604 38.1713 16.7857 38.3247 17.1223 38.3247C17.1649 38.3247 17.2075 38.3218 17.2501 38.3176C17.6337 38.2736 17.9689 38.0378 18.1393 37.6912L20.4945 32.9213L22.8496 37.6912C23.0201 38.0377 23.3553 38.2736 23.7388 38.3176C23.7814 38.3218 23.8255 38.3247 23.8666 38.3247C24.2047 38.3247 24.5286 38.1741 24.7459 37.9071L25.9988 36.3744L27.9803 36.3119C28.3666 36.2991 28.7204 36.0932 28.9192 35.7608C29.118 35.4284 29.1337 35.0193 28.9632 34.6727L26.1706 29.0149C26.3013 28.7308 26.4107 28.4354 26.4973 28.13H31.8526C33.7319 28.13 35.2617 26.6002 35.2617 24.7209L35.2688 9.94815C35.2688 8.06888 33.739 6.53906 31.8597 6.53906H31.8636ZM16.8876 35.1016L16.4246 34.5348C16.2158 34.2806 15.909 34.1286 15.5808 34.1187L14.8465 34.0945L16.338 31.0732C16.9062 31.5817 17.5652 31.988 18.2897 32.2635L16.8876 35.1016ZM16.5226 26.4256C16.5226 24.2324 18.3067 22.4482 20.5 22.4482C22.6934 22.4482 24.4775 24.2322 24.4775 26.4256C24.4775 28.619 22.6934 30.4031 20.5 30.4031C18.3067 30.4031 16.5226 28.619 16.5226 26.4256ZM25.419 34.1202C25.0908 34.1301 24.7826 34.2821 24.5752 34.5363L24.1122 35.1031L22.7102 32.265C23.4346 31.9895 24.0951 31.5846 24.6619 31.0747L26.1534 34.096L25.419 34.1202ZM33 24.7209C33 25.3473 32.4915 25.8572 31.8637 25.8572H26.7215C26.4331 22.6768 23.7542 20.1754 20.5 20.1754C17.2459 20.1754 14.567 22.6768 14.2786 25.8572H9.13641C8.50855 25.8572 8.00004 25.3473 8.00004 24.7209V9.94815C8.00004 9.32172 8.50855 8.81179 9.13641 8.81179H31.8637C32.4915 8.81179 33 9.32172 33 9.94815V24.7209ZM15.9546 12.2209C15.9546 11.593 16.4631 11.0845 17.091 11.0845H23.9091C24.537 11.0845 25.0455 11.593 25.0455 12.2209C25.0455 12.8487 24.537 13.3572 23.9091 13.3572H17.091C16.4631 13.3572 15.9546 12.8487 15.9546 12.2209ZM28.4546 16.7663C28.4546 17.3942 27.9461 17.9027 27.3182 17.9027H13.6819C13.054 17.9027 12.5455 17.3942 12.5455 16.7663C12.5455 16.1385 13.054 15.63 13.6819 15.63H27.3182C27.9461 15.63 28.4546 16.1385 28.4546 16.7663Z" fill="#FCFCFC"/>
</svg>
