<svg width="41" height="41" viewBox="0 0 41 41" fill="none" xmlns="http://www.w3.org/2000/svg">
<path d="M11.3056 11.1466C11.3056 10.131 12.129 9.30756 13.1446 9.30756H16.8221C17.8377 9.30756 18.6611 10.131 18.6611 11.1466V13.6241C18.6611 14.6397 17.8377 15.4631 16.8221 15.4631H13.1446C12.129 15.4631 11.3056 14.6397 11.3056 13.6241V11.1466Z" fill="#FCFCFC"/>
<path d="M11.3056 26.7411C11.3056 25.7255 12.129 24.902 13.1446 24.902H16.8221C17.8377 24.902 18.6611 25.7255 18.6611 26.7411V29.2186C18.6611 30.2342 17.8377 31.0576 16.8221 31.0576H13.1446C12.129 31.0576 11.3056 30.2342 11.3056 29.2186V26.7411Z" fill="#FCFCFC"/>
<path d="M22.5 11.1466C22.5 10.131 23.3234 9.30756 24.339 9.30756H28.0165C29.0321 9.30756 29.8556 10.131 29.8556 11.1466V13.6241C29.8556 14.6397 29.0321 15.4631 28.0165 15.4631H24.339C23.3234 15.4631 22.5 14.6397 22.5 13.6241V11.1466Z" fill="#FCFCFC"/>
<path d="M22.5 26.7411C22.5 25.7255 23.3234 24.902 24.339 24.902H28.0165C29.0321 24.902 29.8556 25.7255 29.8556 26.7411V29.2186C29.8556 30.2342 29.0321 31.0576 28.0165 31.0576H24.339C23.3234 31.0576 22.5 30.2342 22.5 29.2186V26.7411Z" fill="#FCFCFC"/>
<path fill-rule="evenodd" clip-rule="evenodd" d="M6.03999 20.102C6.03999 19.4062 6.60411 18.842 7.29999 18.842H33.9C34.5959 18.842 35.16 19.4062 35.16 20.102C35.16 20.7979 34.5959 21.362 33.9 21.362H7.29999C6.60411 21.362 6.03999 20.7979 6.03999 20.102Z" fill="#FCFCFC"/>
<path fill-rule="evenodd" clip-rule="evenodd" d="M7.12632 2.10199C4.57128 2.10199 2.5 4.17327 2.5 6.72831V12.5793C2.5 13.2878 3.07437 13.8622 3.78288 13.8622C4.4914 13.8622 5.06576 13.2878 5.06576 12.5793V6.72831C5.06576 5.59031 5.98832 4.66775 7.12632 4.66775H12.9773C13.6858 4.66775 14.2602 4.09339 14.2602 3.38487C14.2602 2.67636 13.6858 2.10199 12.9773 2.10199H7.12632Z" fill="#FCFCFC"/>
<path fill-rule="evenodd" clip-rule="evenodd" d="M7.12632 38.1021C4.57128 38.1021 2.5 36.0308 2.5 33.4757V27.6247C2.5 26.9162 3.07437 26.3419 3.78288 26.3419C4.4914 26.3419 5.06576 26.9162 5.06576 27.6247V33.4757C5.06576 34.6137 5.98832 35.5363 7.12632 35.5363H12.9773C13.6858 35.5363 14.2602 36.1107 14.2602 36.8192C14.2602 37.5277 13.6858 38.1021 12.9773 38.1021H7.12632Z" fill="#FCFCFC"/>
<path fill-rule="evenodd" clip-rule="evenodd" d="M33.8737 2.10199C36.4287 2.10199 38.5 4.17327 38.5 6.72831V12.5793C38.5 13.2878 37.9256 13.8622 37.2171 13.8622C36.5086 13.8622 35.9342 13.2878 35.9342 12.5793V6.72831C35.9342 5.59031 35.0117 4.66775 33.8737 4.66775H28.0227C27.3142 4.66775 26.7398 4.09339 26.7398 3.38487C26.7398 2.67636 27.3142 2.10199 28.0227 2.10199H33.8737Z" fill="#FCFCFC"/>
<path fill-rule="evenodd" clip-rule="evenodd" d="M33.8737 38.1021C36.4287 38.1021 38.5 36.0308 38.5 33.4757V27.6247C38.5 26.9162 37.9256 26.3419 37.2171 26.3419C36.5086 26.3419 35.9342 26.9162 35.9342 27.6247V33.4757C35.9342 34.6137 35.0117 35.5363 33.8737 35.5363H28.0227C27.3142 35.5363 26.7398 36.1107 26.7398 36.8192C26.7398 37.5277 27.3142 38.1021 28.0227 38.1021H33.8737Z" fill="#FCFCFC"/>
</svg>
