<svg width="41" height="41" viewBox="0 0 41 41" fill="none" xmlns="http://www.w3.org/2000/svg">
<g clip-path="url(#clip0_493_11141)">
<path d="M25.8978 30.5689C25.27 30.5689 24.7615 31.0774 24.7615 31.7053V32.1073H8.85238V10.5164H14.0484C15.0654 12.9766 18.5498 12.9709 19.564 10.5164H24.7615V12.2919C24.7615 12.9198 25.27 13.4283 25.8978 13.4283C26.5257 13.4283 27.0342 12.9198 27.0342 12.2919V8.24356C27.0328 6.36145 25.5072 4.83589 23.6251 4.83447H9.98874C8.10947 4.83731 6.58532 6.3572 6.57965 8.23647V36.6528C6.58249 38.5349 8.10663 40.0591 9.98874 40.0619H23.6251C25.5072 40.0605 27.0328 38.5349 27.0342 36.6528V31.7056C27.0342 31.403 26.9149 31.1147 26.7018 30.9016C26.4887 30.6885 26.199 30.5689 25.8978 30.5689ZM9.98874 7.10709H23.6251C24.253 7.10851 24.76 7.6156 24.7615 8.24345H18.6535C18.0256 8.24345 17.5171 8.75196 17.5171 9.37982C17.5171 9.77185 17.1989 10.09 16.8069 10.09C16.4148 10.09 16.0967 9.77185 16.0967 9.37982C16.0967 9.07868 15.9774 8.78891 15.7643 8.57585C15.5512 8.36279 15.2614 8.24347 14.9603 8.24347H8.85232C8.85374 7.61561 9.36089 7.10851 9.98874 7.10709ZM23.6251 37.7889H9.98874C9.36089 37.7875 8.8538 37.2804 8.85238 36.6525V34.3798H24.7615V36.6525C24.76 37.2804 24.253 37.7875 23.6251 37.7889ZM17.0284 37.198C16.5781 37.2889 16.1179 37.0986 15.8622 36.7165C15.6065 36.3344 15.6065 35.8358 15.8622 35.4537C16.1165 35.0716 16.5767 34.8798 17.0284 34.9693C17.4787 35.0588 17.8309 35.4111 17.9204 35.8628C17.9801 36.1582 17.919 36.465 17.7528 36.7151C17.5852 36.9665 17.3253 37.1398 17.0284 37.198ZM28.2371 24.3955L25.3465 22.5602C25.5127 21.9295 25.5141 21.2662 25.3465 20.6355L28.2499 18.806C30.686 20.8358 34.4204 19.1028 34.4204 15.9139C34.4176 13.8358 32.7344 12.1525 30.6561 12.1496C28.1902 12.1496 26.3761 14.499 27.0226 16.8939L24.1277 18.7164C21.6888 16.661 17.943 18.4053 17.943 21.5956C17.943 24.7874 21.6888 26.5262 24.1262 24.4777L27.0183 26.3144C26.3819 28.7093 28.2015 31.0417 30.6561 31.0417C32.7342 31.0388 34.4175 29.3556 34.4204 27.2773C34.4204 24.0856 30.676 22.347 28.2371 24.3955ZM30.6561 14.4224C31.48 14.4238 32.1462 15.09 32.1476 15.9139C32.1476 17.3513 30.2939 17.9593 29.4459 16.7832C29.1192 16.3286 29.0738 15.7306 29.328 15.232C29.5837 14.7349 30.0965 14.4209 30.6561 14.4224ZM21.7074 23.0871C21.1037 23.0871 20.5597 22.7235 20.3295 22.1667C20.098 21.6084 20.2258 20.9678 20.6534 20.5416C21.0795 20.1141 21.7202 19.9863 22.2784 20.2178C22.8352 20.4479 23.1989 20.9919 23.1989 21.5956C23.1974 22.4195 22.5313 23.0857 21.7074 23.0871ZM30.6561 28.7689C30.0524 28.7689 29.5084 28.4053 29.2783 27.8485C29.0467 27.2902 29.1746 26.6496 29.6021 26.2235C30.0283 25.7959 30.6689 25.6681 31.2271 25.8996C31.7839 26.1297 32.1476 26.6737 32.1476 27.2774C32.1462 28.1013 31.48 28.7675 30.6561 28.7689Z" fill="#FCFCFC"/>
</g>
<defs>
<clipPath id="clip0_493_11141">
<rect width="40" height="40" fill="white" transform="translate(0.5 0.630005)"/>
</clipPath>
</defs>
</svg>
