<svg width="41" height="41" viewBox="0 0 41 41" fill="none" xmlns="http://www.w3.org/2000/svg">
<path d="M8.71898 31.5602C9.1721 31.7789 9.71472 31.5886 9.93345 31.1369C10.1522 30.6852 9.96186 30.1411 9.51014 29.9224C6.44054 28.4409 4.64505 26.1541 4.45632 23.4835H4.4549C4.30433 21.0716 5.43359 18.7577 7.42792 17.3926C8.35123 16.779 9.4265 16.431 10.5345 16.3869C11.6424 16.3429 12.7418 16.6028 13.712 17.1398C14.1623 17.3628 14.7092 17.1795 14.9322 16.7293C15.1566 16.279 14.972 15.7335 14.5217 15.5091C13.7447 15.1255 12.9166 14.8557 12.0615 14.7079C12.374 13.1071 13.151 11.6313 14.293 10.4665C15.9379 8.81733 18.1723 7.89405 20.5003 7.90115C22.8256 7.89404 25.0585 8.81733 26.7006 10.4637C27.8441 11.6284 28.6211 13.1043 28.9336 14.7066C28.0799 14.8529 27.2518 15.1227 26.4762 15.5077C26.2589 15.6128 26.0913 15.8017 26.0132 16.0304C25.935 16.2605 25.9521 16.5105 26.06 16.7279C26.1666 16.9452 26.3569 17.11 26.587 17.1867C26.8157 17.2634 27.0671 17.2449 27.2831 17.137C28.2532 16.5986 29.3526 16.3372 30.462 16.3827C31.57 16.4267 32.6438 16.7762 33.5686 17.3898C35.5629 18.7548 36.6921 21.0702 36.5388 23.4836C36.3513 26.1498 34.5544 28.4396 31.4835 29.9211C31.1014 30.1043 30.8968 30.529 30.9906 30.9424C31.0858 31.3557 31.4536 31.6498 31.8784 31.6483C32.0147 31.6483 32.1497 31.6171 32.2718 31.5574C37.242 29.1611 38.218 25.5491 38.3544 23.6112C38.5461 20.5487 37.1129 17.6112 34.5802 15.8796C33.4552 15.1197 32.1469 14.6751 30.7918 14.5912C30.431 12.543 29.4537 10.6538 27.9893 9.17779C26.0063 7.18772 23.3104 6.07408 20.5005 6.08263C17.6909 6.08547 14.9976 7.1991 13.0078 9.18205C11.5433 10.6579 10.5646 12.5471 10.2067 14.5955C8.85014 14.6793 7.54192 15.1225 6.41541 15.881C3.88418 17.614 2.45251 20.5516 2.64269 23.6127C2.77905 25.5516 3.75065 29.1625 8.71941 31.5599L8.71898 31.5602Z" fill="#FCFCFC"/>
<path d="M20.4999 20.2503C18.0241 20.2532 16.0185 22.2589 16.0156 24.7347V27.0742C14.348 27.2759 13.0937 28.6878 13.088 30.3668V34.4505C13.0894 36.2899 14.5809 37.7814 16.4218 37.7829H24.5822H24.5808C26.4217 37.7814 27.9132 36.2899 27.9146 34.4505V30.3668C27.9103 28.6878 26.6532 27.2745 24.9842 27.0756V24.7361C24.9856 23.5458 24.5126 22.4051 23.6717 21.5642C22.8308 20.7219 21.6903 20.2503 20.4999 20.2503ZM17.8338 24.7347C17.8338 23.2617 19.0269 22.0685 20.4999 22.0685C21.973 22.0685 23.1661 23.2617 23.1661 24.7347V27.0373H17.8338V24.7347ZM26.0967 30.3667V34.4503C26.0967 34.8509 25.9362 35.2373 25.652 35.5214C25.3679 35.8054 24.983 35.9646 24.581 35.9646H16.4207C15.584 35.9646 14.905 35.2856 14.905 34.4503V30.3667C14.9065 29.5315 15.584 28.8539 16.4207 28.8525H24.581H24.5796C25.4163 28.8525 26.0952 29.5315 26.0952 30.3667H26.0967Z" fill="#FCFCFC"/>
</svg>
