<svg width="41" height="41" viewBox="0 0 41 41" fill="none" xmlns="http://www.w3.org/2000/svg">
<path d="M35.2727 36.0845C35.2642 36.7081 34.7599 37.2124 34.1364 37.2209H8.37929C6.91766 37.2123 5.73584 36.0305 5.72729 34.5689V8.81178C5.72729 8.18392 6.2358 7.67542 6.86366 7.67542C7.49151 7.67542 8.00002 8.18392 8.00002 8.81178V23.2052L10.3338 21.4623V21.4637C10.3097 21.2876 10.3097 21.1086 10.3338 20.9325C10.3338 19.468 11.5199 18.2819 12.9844 18.2819C14.4489 18.2819 15.6364 19.468 15.6364 20.9325C15.6364 21.1527 15.6066 21.3728 15.5455 21.5845L20.9702 26.13C21.3168 25.9709 21.6947 25.8885 22.0754 25.8871C22.3069 25.8913 22.537 25.9268 22.7572 25.9936L28.6819 18.978C28.537 18.6385 28.4603 18.272 28.4546 17.9027C28.4546 16.8303 29.1009 15.8629 30.091 15.4524C31.0825 15.0433 32.2231 15.2692 32.9816 16.0277C33.7387 16.7862 33.966 17.9268 33.5555 18.9169C33.145 19.9084 32.179 20.5547 31.1066 20.5547C30.8751 20.5504 30.645 20.5149 30.4248 20.4481L24.3637 27.4325C24.5086 27.7734 24.5853 28.1384 24.591 28.5092C24.591 29.9736 23.4035 31.1598 21.939 31.1598C20.4745 31.1598 19.2884 29.9737 19.2884 28.5092C19.287 28.289 19.3182 28.0688 19.3793 27.8572L13.9546 23.3117C13.608 23.4708 13.2301 23.5532 12.848 23.5546C12.419 23.5489 11.9986 23.441 11.6207 23.2364L8.00002 26.0546V34.5688C8.00002 34.6696 8.0398 34.7662 8.11082 34.8373C8.18184 34.9083 8.27843 34.9481 8.37928 34.9481H34.1364C34.7599 34.9566 35.2642 35.4609 35.2727 36.0845Z" fill="#FCFCFC"/>
</svg>
